<mxfile host="app.diagrams.net" modified="2022-03-05T16:47:04.877Z" agent="5.0 (Windows NT 10.0; Win64; x64) AppleWebKit/537.36 (KHTML, like Gecko) Chrome/99.0.4844.51 Safari/537.36" etag="30f11zYdTelUYCT_xNQG" version="16.6.6" type="github">
  <diagram id="V8Y6arlCo__JOH2O99Cv" name="Page-1">
    <mxGraphModel dx="1038" dy="551" grid="1" gridSize="10" guides="1" tooltips="1" connect="1" arrows="1" fold="1" page="1" pageScale="1" pageWidth="850" pageHeight="1100" math="0" shadow="0">
      <root>
        <mxCell id="0" />
        <mxCell id="1" parent="0" />
        <mxCell id="UKMtihWJ-jeDACADgeN7-1" value="VPC" style="sketch=0;outlineConnect=0;gradientColor=none;html=1;whiteSpace=wrap;fontSize=12;fontStyle=0;shape=mxgraph.aws4.group;grIcon=mxgraph.aws4.group_vpc;strokeColor=#879196;fillColor=none;verticalAlign=top;align=left;spacingLeft=30;fontColor=#879196;dashed=0;" parent="1" vertex="1">
          <mxGeometry x="70" y="320" width="840" height="620" as="geometry" />
        </mxCell>
        <mxCell id="UKMtihWJ-jeDACADgeN7-2" value="Availability zone" style="sketch=0;outlineConnect=0;gradientColor=none;html=1;whiteSpace=wrap;fontSize=12;fontStyle=0;shape=mxgraph.aws4.group;grIcon=mxgraph.aws4.group_availability_zone;strokeColor=#545B64;fillColor=none;verticalAlign=top;align=left;spacingLeft=30;fontColor=#545B64;dashed=1;" parent="1" vertex="1">
          <mxGeometry x="160" y="520" width="270" height="400" as="geometry" />
        </mxCell>
        <mxCell id="UKMtihWJ-jeDACADgeN7-3" value="Availability zone" style="sketch=0;outlineConnect=0;gradientColor=none;html=1;whiteSpace=wrap;fontSize=12;fontStyle=0;shape=mxgraph.aws4.group;grIcon=mxgraph.aws4.group_availability_zone;strokeColor=#545B64;fillColor=none;verticalAlign=top;align=left;spacingLeft=30;fontColor=#545B64;dashed=1;" parent="1" vertex="1">
          <mxGeometry x="550" y="520" width="290" height="400" as="geometry" />
        </mxCell>
        <mxCell id="UKMtihWJ-jeDACADgeN7-4" value="&lt;p style=&quot;line-height: 2.4&quot;&gt;&lt;font style=&quot;font-size: 17px ; line-height: 0.5&quot;&gt;10.0.0.0/16&lt;/font&gt;&lt;/p&gt;" style="text;html=1;strokeColor=none;fillColor=none;align=center;verticalAlign=middle;whiteSpace=wrap;rounded=0;" parent="1" vertex="1">
          <mxGeometry x="90" y="470" width="60" height="30" as="geometry" />
        </mxCell>
        <mxCell id="UKMtihWJ-jeDACADgeN7-25" style="edgeStyle=orthogonalEdgeStyle;rounded=0;orthogonalLoop=1;jettySize=auto;html=1;fontSize=12;exitX=0.5;exitY=0;exitDx=0;exitDy=0;startArrow=none;" parent="1" source="UKMtihWJ-jeDACADgeN7-35" target="UKMtihWJ-jeDACADgeN7-30" edge="1">
          <mxGeometry relative="1" as="geometry">
            <mxPoint x="491.25" y="332" as="targetPoint" />
          </mxGeometry>
        </mxCell>
        <mxCell id="UKMtihWJ-jeDACADgeN7-5" value="Public subnet" style="points=[[0,0],[0.25,0],[0.5,0],[0.75,0],[1,0],[1,0.25],[1,0.5],[1,0.75],[1,1],[0.75,1],[0.5,1],[0.25,1],[0,1],[0,0.75],[0,0.5],[0,0.25]];outlineConnect=0;gradientColor=none;html=1;whiteSpace=wrap;fontSize=12;fontStyle=0;container=1;pointerEvents=0;collapsible=0;recursiveResize=0;shape=mxgraph.aws4.group;grIcon=mxgraph.aws4.group_security_group;grStroke=0;strokeColor=#248814;fillColor=#E9F3E6;verticalAlign=top;align=left;spacingLeft=30;fontColor=#248814;dashed=0;" parent="1" vertex="1">
          <mxGeometry x="200" y="560" width="200" height="160" as="geometry" />
        </mxCell>
        <mxCell id="UKMtihWJ-jeDACADgeN7-7" value="Public subnet" style="points=[[0,0],[0.25,0],[0.5,0],[0.75,0],[1,0],[1,0.25],[1,0.5],[1,0.75],[1,1],[0.75,1],[0.5,1],[0.25,1],[0,1],[0,0.75],[0,0.5],[0,0.25]];outlineConnect=0;gradientColor=none;html=1;whiteSpace=wrap;fontSize=12;fontStyle=0;container=1;pointerEvents=0;collapsible=0;recursiveResize=0;shape=mxgraph.aws4.group;grIcon=mxgraph.aws4.group_security_group;grStroke=0;strokeColor=#248814;fillColor=#E9F3E6;verticalAlign=top;align=left;spacingLeft=30;fontColor=#248814;dashed=0;" parent="1" vertex="1">
          <mxGeometry x="595" y="560" width="200" height="160" as="geometry" />
        </mxCell>
        <mxCell id="UKMtihWJ-jeDACADgeN7-9" value="10.0.20.0/24" style="text;html=1;strokeColor=none;fillColor=none;align=center;verticalAlign=middle;whiteSpace=wrap;rounded=0;fontSize=12;" parent="UKMtihWJ-jeDACADgeN7-7" vertex="1">
          <mxGeometry x="125" width="60" height="30" as="geometry" />
        </mxCell>
        <mxCell id="UKMtihWJ-jeDACADgeN7-21" value="" style="outlineConnect=0;dashed=0;verticalLabelPosition=bottom;verticalAlign=top;align=center;html=1;shape=mxgraph.aws3.volume;fillColor=#E05243;gradientColor=none;fontSize=12;" parent="UKMtihWJ-jeDACADgeN7-7" vertex="1">
          <mxGeometry x="15" y="31.5" width="30" height="60" as="geometry" />
        </mxCell>
        <mxCell id="UKMtihWJ-jeDACADgeN7-8" value="&lt;font style=&quot;font-size: 12px&quot;&gt;10.0.10.0/24&lt;/font&gt;" style="text;html=1;strokeColor=none;fillColor=none;align=center;verticalAlign=middle;whiteSpace=wrap;rounded=0;fontSize=17;" parent="1" vertex="1">
          <mxGeometry x="320" y="560" width="60" height="30" as="geometry" />
        </mxCell>
        <mxCell id="UKMtihWJ-jeDACADgeN7-10" value="Private subnet" style="points=[[0,0],[0.25,0],[0.5,0],[0.75,0],[1,0],[1,0.25],[1,0.5],[1,0.75],[1,1],[0.75,1],[0.5,1],[0.25,1],[0,1],[0,0.75],[0,0.5],[0,0.25]];outlineConnect=0;gradientColor=none;html=1;whiteSpace=wrap;fontSize=12;fontStyle=0;container=1;pointerEvents=0;collapsible=0;recursiveResize=0;shape=mxgraph.aws4.group;grIcon=mxgraph.aws4.group_security_group;grStroke=0;strokeColor=#147EBA;fillColor=#E6F2F8;verticalAlign=top;align=left;spacingLeft=30;fontColor=#147EBA;dashed=0;" parent="1" vertex="1">
          <mxGeometry x="200" y="740" width="200" height="130" as="geometry" />
        </mxCell>
        <mxCell id="UKMtihWJ-jeDACADgeN7-12" value="&lt;font style=&quot;font-size: 12px&quot;&gt;10.0.100.0/24&lt;/font&gt;" style="text;html=1;strokeColor=none;fillColor=none;align=center;verticalAlign=middle;whiteSpace=wrap;rounded=0;fontSize=17;" parent="UKMtihWJ-jeDACADgeN7-10" vertex="1">
          <mxGeometry x="130" width="60" height="30" as="geometry" />
        </mxCell>
        <mxCell id="UKMtihWJ-jeDACADgeN7-11" value="Private subnet" style="points=[[0,0],[0.25,0],[0.5,0],[0.75,0],[1,0],[1,0.25],[1,0.5],[1,0.75],[1,1],[0.75,1],[0.5,1],[0.25,1],[0,1],[0,0.75],[0,0.5],[0,0.25]];outlineConnect=0;gradientColor=none;html=1;whiteSpace=wrap;fontSize=12;fontStyle=0;container=1;pointerEvents=0;collapsible=0;recursiveResize=0;shape=mxgraph.aws4.group;grIcon=mxgraph.aws4.group_security_group;grStroke=0;strokeColor=#147EBA;fillColor=#E6F2F8;verticalAlign=top;align=left;spacingLeft=30;fontColor=#147EBA;dashed=0;" parent="1" vertex="1">
          <mxGeometry x="595" y="740" width="200" height="130" as="geometry" />
        </mxCell>
        <mxCell id="UKMtihWJ-jeDACADgeN7-13" value="&lt;font style=&quot;font-size: 12px&quot;&gt;10.0.200.0/24&lt;/font&gt;" style="text;html=1;strokeColor=none;fillColor=none;align=center;verticalAlign=middle;whiteSpace=wrap;rounded=0;fontSize=17;" parent="1" vertex="1">
          <mxGeometry x="720" y="740" width="60" height="30" as="geometry" />
        </mxCell>
        <mxCell id="UKMtihWJ-jeDACADgeN7-14" value="" style="outlineConnect=0;dashed=0;verticalLabelPosition=bottom;verticalAlign=top;align=center;html=1;shape=mxgraph.aws3.ec2;fillColor=#F58534;gradientColor=none;fontSize=12;" parent="1" vertex="1">
          <mxGeometry x="330" y="590" width="56.5" height="61.5" as="geometry" />
        </mxCell>
        <mxCell id="UKMtihWJ-jeDACADgeN7-18" value="" style="outlineConnect=0;dashed=0;verticalLabelPosition=bottom;verticalAlign=top;align=center;html=1;shape=mxgraph.aws3.ec2;fillColor=#F58534;gradientColor=none;fontSize=12;" parent="1" vertex="1">
          <mxGeometry x="730" y="590" width="56.5" height="61.5" as="geometry" />
        </mxCell>
        <mxCell id="UKMtihWJ-jeDACADgeN7-19" value="" style="outlineConnect=0;dashed=0;verticalLabelPosition=bottom;verticalAlign=top;align=center;html=1;shape=mxgraph.aws3.volume;fillColor=#E05243;gradientColor=none;fontSize=12;" parent="1" vertex="1">
          <mxGeometry x="210" y="591.5" width="30" height="60" as="geometry" />
        </mxCell>
        <mxCell id="UKMtihWJ-jeDACADgeN7-27" style="edgeStyle=orthogonalEdgeStyle;rounded=0;orthogonalLoop=1;jettySize=auto;html=1;fontSize=12;exitX=0.5;exitY=0;exitDx=0;exitDy=0;startArrow=none;" parent="1" source="UKMtihWJ-jeDACADgeN7-33" target="UKMtihWJ-jeDACADgeN7-30" edge="1">
          <mxGeometry relative="1" as="geometry">
            <mxPoint x="491.25" y="332" as="targetPoint" />
            <Array as="points" />
          </mxGeometry>
        </mxCell>
        <mxCell id="UKMtihWJ-jeDACADgeN7-28" value="" style="rounded=1;arcSize=10;dashed=1;strokeColor=#ff0000;fillColor=none;gradientColor=none;dashPattern=8 4;strokeWidth=2;fontSize=12;" parent="1" vertex="1">
          <mxGeometry x="720" y="590" width="70" height="70" as="geometry" />
        </mxCell>
        <mxCell id="UKMtihWJ-jeDACADgeN7-32" style="edgeStyle=orthogonalEdgeStyle;rounded=0;orthogonalLoop=1;jettySize=auto;html=1;fontSize=12;" parent="1" source="UKMtihWJ-jeDACADgeN7-30" target="UKMtihWJ-jeDACADgeN7-31" edge="1">
          <mxGeometry relative="1" as="geometry" />
        </mxCell>
        <mxCell id="UKMtihWJ-jeDACADgeN7-30" value="" style="outlineConnect=0;dashed=0;verticalLabelPosition=bottom;verticalAlign=top;align=center;html=1;shape=mxgraph.aws3.router;fillColor=#F58534;gradientColor=none;fontSize=12;" parent="1" vertex="1">
          <mxGeometry x="460.5" y="350" width="69" height="72" as="geometry" />
        </mxCell>
        <mxCell id="UKMtihWJ-jeDACADgeN7-31" value="" style="outlineConnect=0;dashed=0;verticalLabelPosition=bottom;verticalAlign=top;align=center;html=1;shape=mxgraph.aws3.internet_gateway;fillColor=#F58534;gradientColor=none;fontSize=12;" parent="1" vertex="1">
          <mxGeometry x="460.5" y="190" width="69" height="72" as="geometry" />
        </mxCell>
        <mxCell id="UKMtihWJ-jeDACADgeN7-33" value="" style="sketch=0;outlineConnect=0;fontColor=#232F3E;gradientColor=none;fillColor=#4D27AA;strokeColor=none;dashed=0;verticalLabelPosition=bottom;verticalAlign=top;align=center;html=1;fontSize=12;fontStyle=0;aspect=fixed;pointerEvents=1;shape=mxgraph.aws4.network_access_control_list;" parent="1" vertex="1">
          <mxGeometry x="656" y="410" width="78" height="78" as="geometry" />
        </mxCell>
        <mxCell id="UKMtihWJ-jeDACADgeN7-34" value="" style="edgeStyle=orthogonalEdgeStyle;rounded=0;orthogonalLoop=1;jettySize=auto;html=1;fontSize=12;exitX=0.5;exitY=0;exitDx=0;exitDy=0;endArrow=none;" parent="1" source="UKMtihWJ-jeDACADgeN7-7" target="UKMtihWJ-jeDACADgeN7-33" edge="1">
          <mxGeometry relative="1" as="geometry">
            <mxPoint x="695" y="560" as="sourcePoint" />
            <mxPoint x="494.99999999999955" y="422" as="targetPoint" />
            <Array as="points" />
          </mxGeometry>
        </mxCell>
        <mxCell id="UKMtihWJ-jeDACADgeN7-35" value="" style="sketch=0;outlineConnect=0;fontColor=#232F3E;gradientColor=none;fillColor=#4D27AA;strokeColor=none;dashed=0;verticalLabelPosition=bottom;verticalAlign=top;align=center;html=1;fontSize=12;fontStyle=0;aspect=fixed;pointerEvents=1;shape=mxgraph.aws4.network_access_control_list;" parent="1" vertex="1">
          <mxGeometry x="261" y="410" width="78" height="78" as="geometry" />
        </mxCell>
        <mxCell id="UKMtihWJ-jeDACADgeN7-36" value="" style="edgeStyle=orthogonalEdgeStyle;rounded=0;orthogonalLoop=1;jettySize=auto;html=1;fontSize=12;exitX=0.5;exitY=0;exitDx=0;exitDy=0;endArrow=none;" parent="1" source="UKMtihWJ-jeDACADgeN7-5" target="UKMtihWJ-jeDACADgeN7-35" edge="1">
          <mxGeometry relative="1" as="geometry">
            <mxPoint x="300" y="560" as="sourcePoint" />
            <mxPoint x="494.99999999999955" y="422" as="targetPoint" />
          </mxGeometry>
        </mxCell>
        <mxCell id="UKMtihWJ-jeDACADgeN7-37" value="" style="rounded=1;arcSize=10;dashed=1;strokeColor=#ff0000;fillColor=none;gradientColor=none;dashPattern=8 4;strokeWidth=2;fontSize=12;" parent="1" vertex="1">
          <mxGeometry x="323.25" y="585.75" width="70" height="70" as="geometry" />
        </mxCell>
      </root>
    </mxGraphModel>
  </diagram>
</mxfile>
